<svg xmlns="http://www.w3.org/2000/svg" viewBox="0 0 100 130" color="#a58a52">
      <path fill="currentColor" d="M47 4 H53 V13 H62 V19 H53 V28 H47 V19 H38 V13 H47 Z"/>
      <circle fill="currentColor" cx="50" cy="35" r="6.5"/>
      <path fill="currentColor" d="M37 43 C37 37 63 37 63 43 C66 49 65 55 60 59 C67 63 69 69 67 75 L33 75 C31 69 33 63 40 59 C35 55 34 49 37 43 Z"/>
      <path fill="currentColor" d="M42 75 H58 L64 100 H36 Z"/>
      <path fill="currentColor" d="M28 100 H72 L69 108 H31 Z"/>
      <path fill="currentColor" d="M22 108 H78 L74 128 H26 Z"/>
    </svg>