<svg xmlns="http://www.w3.org/2000/svg" viewBox="0 0 128 128" role="img" aria-label="Checkmatela favicon"><title>Checkmatela favicon</title><rect width="128" height="128" rx="24" fill="#0F2E22"/><path d="M39 28V12L48 19L64 5L80 19L89 12V28Z" fill="#AD7F3C"/><ellipse cx="64" cy="61" rx="34" ry="35" fill="#F4E4CB"/><circle cx="77" cy="60" r="10" fill="none" stroke="#AD7F3C" stroke-width="3"/><circle cx="51" cy="60" r="2.5" fill="#15181A"/><circle cx="77" cy="60" r="2.5" fill="#15181A"/><path d="M50 74Q64 85 79 73" fill="none" stroke="#15181A" stroke-width="3.4" stroke-linecap="round"/><path d="M25 128C29 102 42 92 52 91L64 109L76 91C91 94 101 106 104 128Z" fill="#15181A"/><path d="M50 94L64 111L78 94" fill="none" stroke="#FAF8F2" stroke-width="4"/><path d="M55 95L64 100L55 105ZM73 95L64 100L73 105Z" fill="#7A2036"/></svg>
